<?xml version="1.0" standalone="no"?>
<!DOCTYPE svg PUBLIC "-//W3C//DTD SVG 20010904//EN"
 "http://www.w3.org/TR/2001/REC-SVG-20010904/DTD/svg10.dtd">
<svg version="1.0" xmlns="http://www.w3.org/2000/svg"
 width="260.000000pt" height="260.000000pt" viewBox="0 0 260.000000 260.000000"
 preserveAspectRatio="xMidYMid meet">
<metadata>
Created by potrace 1.11, written by Peter Selinger 2001-2013
</metadata>
<g transform="translate(0.000000,260.000000) scale(0.100000,-0.100000)"
fill="#000000" stroke="none">
<path d="M1002 2470 c-50 -68 -92 -165 -92 -212 0 -18 -12 -64 -25 -103 -14
-38 -25 -78 -25 -89 0 -10 -33 -55 -73 -100 -192 -211 -300 -424 -327 -639
-10 -85 -6 -197 10 -226 4 -7 10 20 13 60 7 84 42 195 87 274 32 56 135 159
170 170 18 6 20 12 14 56 -6 48 10 134 27 145 16 9 67 -26 98 -68 29 -40 31
-41 31 -16 0 35 10 58 24 58 21 0 55 -44 62 -79 6 -31 6 -32 -20 -25 -14 3
-26 2 -26 -3 0 -5 26 -14 58 -21 62 -13 141 -58 165 -95 7 -12 20 -40 27 -62
7 -22 28 -66 47 -97 43 -71 41 -83 -33 -163 l-56 -60 -64 2 -63 1 -6 -36 c-3
-21 -8 -50 -10 -66 -7 -39 20 -146 51 -208 35 -70 127 -159 201 -196 34 -18
106 -41 164 -53 166 -34 330 -15 467 55 28 14 52 28 52 30 0 2 -30 -8 -67 -22
-58 -21 -86 -25 -183 -26 -105 -1 -120 1 -173 26 -162 76 -269 265 -246 435 4
38 12 82 17 98 26 86 116 225 166 258 35 23 120 46 215 57 84 11 171 47 171
70 0 6 20 23 46 38 86 54 144 148 116 188 -21 30 -154 90 -281 125 -90 25
-100 31 -147 94 -42 54 -126 99 -252 134 -83 23 -92 27 -92 46 0 10 9 12 35 8
19 -3 35 -2 35 3 -1 70 -59 244 -82 244 -11 0 -43 -65 -64 -133 l-18 -57 -37
106 c-21 59 -44 113 -51 120 -11 10 -21 2 -56 -46z m502 -462 c17 -25 13 -38
-13 -38 -26 0 -66 34 -57 48 12 20 54 14 70 -10z"/>
<path d="M1115 1481 c-6 -11 33 -36 42 -27 7 7 -16 36 -28 36 -4 0 -10 -4 -14
-9z"/>
<path d="M667 1272 c-10 -11 -22 -36 -28 -56 -5 -20 -15 -36 -22 -36 -18 0
-65 -76 -84 -137 l-16 -52 27 -42 c42 -63 104 -127 170 -176 71 -53 86 -55 49
-6 -37 48 -39 122 -5 171 21 29 28 32 76 32 43 0 61 6 94 30 57 41 55 62 -10
90 -29 12 -64 33 -78 46 -14 12 -42 30 -62 39 -21 8 -38 18 -38 21 0 3 5 2 10
-1 15 -9 12 38 -4 60 -13 18 -14 18 -20 -3 -10 -31 -22 -27 -32 9 -9 31 -9 31
-27 11z m107 -158 c4 -11 0 -15 -16 -12 -12 2 -23 9 -26 16 -6 18 35 15 42 -4z"/>
<path d="M519 500 c-70 -73 -74 -204 -9 -262 25 -23 40 -28 84 -28 80 0 101
21 98 96 -1 32 -6 62 -10 66 -5 5 -23 3 -41 -3 -28 -10 -31 -13 -17 -21 19
-11 21 -49 4 -66 -18 -18 -63 -15 -80 6 -37 41 -33 133 8 177 29 32 83 35 91
5 6 -23 14 -25 31 -8 35 35 -7 78 -77 78 -38 0 -49 -5 -82 -40z"/>
<path d="M743 528 c-4 -7 -9 -55 -11 -106 -7 -151 27 -212 118 -212 83 0 110
50 110 200 0 118 -4 130 -40 130 -27 0 -28 -1 -19 -37 12 -53 11 -154 -2 -192
-15 -42 -53 -52 -82 -22 -19 19 -22 33 -22 109 0 48 3 99 8 115 7 25 5 27 -22
27 -16 0 -33 -6 -38 -12z"/>
<path d="M997 533 c-23 -23 6 -110 58 -171 26 -31 26 -32 10 -78 -19 -58 -14
-74 23 -74 27 0 30 3 36 48 3 26 17 65 31 87 79 128 92 187 43 193 -26 3 -28
1 -28 -33 0 -45 -38 -117 -60 -113 -22 4 -50 66 -50 111 0 34 -2 37 -28 37
-16 0 -32 -3 -35 -7z"/>
<path d="M1397 513 c-13 -61 -30 -270 -24 -286 5 -14 22 -17 103 -17 84 0 95
2 90 16 -3 9 -6 21 -6 27 0 7 -4 18 -9 26 -7 11 -13 11 -32 -3 -33 -22 -66
-20 -80 6 -15 29 -6 127 20 201 l20 57 -38 0 c-34 0 -39 -3 -44 -27z"/>
<path d="M1609 514 c-5 -15 -8 -88 -7 -163 l3 -136 37 -3 38 -3 -8 48 c-9 63
-9 176 1 236 l8 47 -31 0 c-24 0 -33 -6 -41 -26z"/>
<path d="M1747 513 c-13 -61 -30 -270 -24 -286 5 -14 22 -17 103 -17 84 0 95
2 90 16 -3 9 -6 21 -6 27 0 7 -4 18 -9 26 -7 11 -13 11 -32 -3 -33 -22 -66
-20 -80 6 -15 29 -6 127 20 201 l20 57 -38 0 c-34 0 -39 -3 -44 -27z"/>
<path d="M1896 524 c-10 -27 14 -96 51 -147 34 -46 35 -51 24 -86 -20 -67 -16
-81 24 -81 32 0 35 2 35 29 0 39 13 73 60 151 24 40 40 81 42 105 3 39 2 40
-29 43 -31 3 -32 2 -27 -25 6 -30 -31 -113 -54 -121 -19 -6 -52 59 -52 106 0
41 -1 42 -34 42 -22 0 -36 -6 -40 -16z"/>
<path d="M772 105 c0 -22 2 -34 5 -27 2 6 13 12 24 12 23 0 36 27 21 42 -8 8
-9 5 -5 -11 4 -16 1 -21 -15 -21 -13 0 -22 8 -25 23 -2 12 -5 4 -5 -18z"/>
<path d="M871 103 c1 -21 3 -30 6 -21 2 9 14 19 26 21 21 4 21 4 -2 6 -16 1
-21 5 -17 16 3 8 1 15 -4 15 -6 0 -9 -17 -9 -37z"/>
<path d="M993 105 c0 -22 2 -30 4 -17 2 12 2 30 0 40 -3 9 -5 -1 -4 -23z"/>
<path d="M1110 125 c0 -9 12 -20 28 -26 26 -10 26 -11 8 -25 -11 -8 -15 -14
-10 -14 6 0 15 5 22 12 14 14 -2 38 -25 38 -9 0 -13 6 -9 15 3 8 1 15 -4 15
-6 0 -10 -7 -10 -15z"/>
<path d="M1211 109 c-1 -38 15 -54 44 -43 10 4 15 18 14 43 l-2 36 -6 -35 c-4
-22 -12 -35 -21 -35 -9 0 -17 13 -21 35 l-6 35 -2 -36z"/>
<path d="M1322 105 c0 -22 2 -34 5 -27 2 6 13 12 24 12 23 0 36 27 21 42 -8 8
-9 5 -5 -11 4 -16 1 -21 -15 -21 -13 0 -22 8 -25 23 -2 12 -5 4 -5 -18z"/>
<path d="M1422 105 c0 -22 2 -34 5 -27 2 6 15 12 28 12 13 0 26 8 30 18 5 14
4 15 -6 5 -21 -20 -47 -15 -52 10 -2 12 -5 4 -5 -18z"/>
<path d="M1533 105 c0 -22 2 -30 4 -17 2 12 2 30 0 40 -3 9 -5 -1 -4 -23z"/>
<path d="M1623 105 c0 -22 2 -30 4 -17 2 12 2 30 0 40 -3 9 -5 -1 -4 -23z"/>
<path d="M1682 105 c0 -22 2 -32 5 -23 2 9 12 19 21 21 16 4 16 5 0 6 -9 0
-19 9 -21 19 -3 9 -5 -1 -5 -23z"/>
<path d="M1772 123 c2 -9 10 -18 18 -20 12 -4 13 -3 1 5 -7 5 -10 15 -7 21 4
6 2 11 -4 11 -6 0 -10 -8 -8 -17z"/>
<path d="M598 103 c23 -2 59 -2 80 0 20 2 1 4 -43 4 -44 0 -61 -2 -37 -4z"/>
<path d="M1928 103 c23 -2 59 -2 80 0 20 2 1 4 -43 4 -44 0 -61 -2 -37 -4z"/>
<path d="M1814 92 c3 -6 -2 -15 -11 -21 -10 -6 -13 -11 -7 -11 20 0 37 27 23
36 -7 4 -9 3 -5 -4z"/>
</g>
</svg>
